<?xml version="1.0" encoding="utf-8"?>
<!-- Generator: Adobe Illustrator 25.4.1, SVG Export Plug-In . SVG Version: 6.00 Build 0)  -->
<svg version="1.1" id="Layer_1" xmlns="http://www.w3.org/2000/svg" xmlns:xlink="http://www.w3.org/1999/xlink" x="0px" y="0px"
	 viewBox="0 0 2800.8 1705.1" style="enable-background:new 0 0 2800.8 1705.1;" xml:space="preserve">
<style type="text/css">
	.st0{fill:#0859A8;}
	.st1{font-family:'NeueKabel-Light';}
	.st2{font-size:247.3788px;}
	.st3{letter-spacing:12;}
</style>
<g>
	<path class="st0" d="M1802.9,691.1c0-46.6-37.3-84.4-83.3-84.4c-13.7,0-26.6,3.4-38,9.3L1602,476.4c22.9-15,38.1-41.2,38.1-70.9
		c0-46.6-37.3-84.4-83.3-84.4c-29.5,0-55.4,15.6-70.2,39h-281.6l-188.6,330.9l188.6,330.9h378.2l140.6-246.7
		C1767.9,773.1,1802.9,736.2,1802.9,691.1z M1674.5,620.2c-10.1,6.6-18.6,15.3-25.1,25.5h-184.9c-6.5-10.2-15.1-19-25.2-25.5
		l79.5-139.6c11.4,5.9,24.3,9.3,38,9.3s26.6-3.4,38-9.3L1674.5,620.2z M1394.4,775.6c13.7,0,26.5-3.4,37.9-9.3l94,165h-264.1
		l94.4-164.9C1367.9,772.2,1380.8,775.6,1394.4,775.6z M1421.6,691.2c0,15.6-12.2,28.3-27.2,28.3s-27.2-12.7-27.2-28.3
		c0-15.6,12.2-28.3,27.2-28.3S1421.6,675.6,1421.6,691.2z M1556.9,377.2c15,0,27.2,12.7,27.2,28.3s-12.2,28.3-27.2,28.3
		s-27.2-12.7-27.2-28.3S1541.9,377.2,1556.9,377.2z M1511.8,476.4L1432.2,616c-11.4-5.9-24.2-9.2-37.8-9.2
		c-13.7,0-26.5,3.4-37.9,9.3l-94.3-165.2h224.6C1493.1,461.1,1501.7,469.8,1511.8,476.4z M1120.9,691.1l134.3-235.6l94.1,164.8
		c-23,15-38.2,41.2-38.2,71c0,29.8,15.3,56,38.4,71l-94.2,164.5L1120.9,691.1z M1533.2,926.7l-93.7-164.5
		c10.1-6.6,18.7-15.4,25.2-25.7h176.9L1533.2,926.7z M1719.6,719.4c-15,0-27.2-12.7-27.2-28.3s12.2-28.3,27.2-28.3
		s27.2,12.7,27.2,28.3S1734.6,719.4,1719.6,719.4z"/>
	<path class="st0" d="M1409.7,781.2"/>
	<path class="st0" d="M1710.9,673.7"/>
	<text transform="matrix(1 0 0 1 976.224 1316.7493)"><tspan x="0" y="0" class="st0 st1 st2">2022 </tspan><tspan x="615.2" y="0" class="st0 st1 st2 st3">#</tspan><tspan x="801.7" y="0" class="st0 st1 st2">1</tspan></text>
</g>
</svg>
