<?xml version="1.0" encoding="utf-8"?>
<!-- Generator: Adobe Illustrator 25.4.1, SVG Export Plug-In . SVG Version: 6.00 Build 0)  -->
<svg version="1.1" id="Layer_1" xmlns="http://www.w3.org/2000/svg" xmlns:xlink="http://www.w3.org/1999/xlink" x="0px" y="0px"
	 viewBox="0 0 2800.8 1705.1" style="enable-background:new 0 0 2800.8 1705.1;" xml:space="preserve">
<style type="text/css">
	.st0{fill:#CE435B;}
	.st1{font-family:'NeueKabel-Light';}
	.st2{font-size:238px;}
	.st3{letter-spacing:7;}
</style>
<g>
	<path class="st0" d="M1633.9,917.3l118.2-207.4l-118.2-207.4c22.2-14.5,36.8-39.8,36.8-68.5c0-45-36-81.5-80.5-81.5
		c-28.5,0-53.5,15-67.8,37.7h-272l-182.2,319.7l182.2,319.7h272c14.3,22.7,39.3,37.7,67.8,37.7c44.4,0,80.5-36.5,80.5-81.5
		C1670.7,957.1,1656,931.8,1633.9,917.3z M1742.9,709.9L1627,913.3c-11-5.7-23.5-9-36.7-9c-13.2,0-25.7,3.3-36.7,9l-76.8-134.7
		c22.2-14.5,36.9-39.8,36.9-68.5c0-28.8-14.8-54.1-37-68.6l76.8-134.8c11,5.7,23.5,9,36.7,9c13.2,0,25.7-3.3,36.7-9L1742.9,709.9z
		 M1522.5,942h-216.9l91.2-159.3c11,5.7,23.4,8.9,36.5,8.9c13.2,0,25.6-3.2,36.6-9l76.8,134.7C1537,923.7,1528.7,932.1,1522.5,942z
		 M1459.5,710.1c0,15.1-11.8,27.3-26.3,27.3s-26.3-12.3-26.3-27.3c0-15.1,11.8-27.3,26.3-27.3S1459.5,695,1459.5,710.1z
		 M1590.3,406.8c14.5,0,26.3,12.3,26.3,27.3s-11.8,27.3-26.3,27.3s-26.3-12.3-26.3-27.3S1575.8,406.8,1590.3,406.8z M1546.7,502.6
		l-76.9,134.9c-11-5.7-23.4-8.9-36.5-8.9c-13.2,0-25.6,3.2-36.6,8.9l-91.1-159.6h216.9C1528.7,487.8,1537,496.2,1546.7,502.6z
		 M1298.9,482.3l90.9,159.2c-9.7,6.3-18,14.7-24.2,24.6h-171.4L1298.9,482.3z M1194.1,753.8h171.3c6.3,10,14.7,18.5,24.5,24.9
		l-91,158.9L1194.1,753.8z M1590.3,1013.1c-14.5,0-26.3-12.3-26.3-27.3s11.8-27.3,26.3-27.3s26.3,12.3,26.3,27.3
		S1604.8,1013.1,1590.3,1013.1z"/>
</g>
<g>
	<text transform="matrix(1 0 0 1 1015.4932 1348.3112)"><tspan x="0" y="0" class="st0 st1 st2">2022 </tspan><tspan x="591.9" y="0" class="st0 st1 st2 st3">#</tspan><tspan x="766.6" y="0" class="st0 st1 st2">1</tspan></text>
</g>
</svg>
